<?xml version="1.0" standalone="no"?>
<!DOCTYPE svg PUBLIC "-//W3C//DTD SVG 20010904//EN"
 "http://www.w3.org/TR/2001/REC-SVG-20010904/DTD/svg10.dtd">
<svg version="1.0" xmlns="http://www.w3.org/2000/svg"
 width="1024.000000pt" height="68.000000pt" viewBox="0 0 1024.000000 68.000000"
 preserveAspectRatio="xMidYMid meet">

<g transform="translate(0.000000,68.000000) scale(0.100000,-0.100000)"
fill="#000000" stroke="none">
<path d="M100 397 c0 -53 13 -67 62 -67 37 0 38 -1 38 -35 0 -31 3 -35 25 -35
25 0 25 1 25 90 0 89 0 90 -25 90 -22 0 -25 -4 -25 -35 0 -31 -3 -35 -25 -35
-22 0 -25 4 -25 35 0 31 -3 35 -25 35 -23 0 -25 -4 -25 -43z"/>
<path d="M290 350 c0 -89 0 -90 25 -90 24 0 25 2 25 70 l0 70 40 0 c33 0 40 3
40 20 0 18 -7 20 -65 20 l-65 0 0 -90z"/>
<path d="M440 350 c0 -89 0 -90 25 -90 20 0 25 5 25 24 0 13 6 29 14 35 10 9
18 4 37 -24 18 -26 31 -35 52 -35 l29 0 -36 50 c-20 28 -36 53 -36 57 0 4 14
22 32 40 l32 33 -25 0 c-15 0 -37 -12 -54 -30 -16 -16 -32 -30 -37 -30 -4 0
-8 14 -8 30 0 25 -4 30 -25 30 -25 0 -25 -1 -25 -90z"/>
<path d="M726 409 c-33 -39 -33 -79 0 -118 21 -25 34 -31 64 -31 58 0 95 35
95 90 0 55 -37 90 -95 90 -30 0 -43 -6 -64 -31z m104 -34 c14 -37 -3 -75 -35
-75 -34 0 -53 39 -37 75 8 17 20 25 37 25 18 0 28 -7 35 -25z"/>
<path d="M933 385 c-33 -23 -32 -88 1 -110 33 -22 90 -16 94 9 3 15 0 18 -21
12 -25 -6 -57 13 -57 34 0 21 32 40 57 34 21 -6 24 -3 21 12 -4 25 -65 31 -95
9z"/>
<path d="M1080 356 c0 -26 -6 -48 -15 -56 -21 -17 -19 -40 3 -40 27 0 52 32
59 74 9 55 23 43 23 -19 0 -52 1 -55 25 -55 24 0 25 2 25 70 l0 70 -60 0 -60
0 0 -44z"/>
<path d="M1241 374 c-12 -15 -21 -34 -21 -44 0 -10 9 -29 21 -44 41 -52 129
-23 129 44 0 67 -88 96 -129 44z m79 -44 c0 -30 -21 -45 -39 -27 -23 23 -4 71
25 60 8 -3 14 -18 14 -33z"/>
</g>
</svg>
