<svg xmlns="http://www.w3.org/2000/svg" width="195" height="32" viewBox="3 5 195 32"><g style="line-height:125%" font-weight="400" font-size="40" font-family="Russo One" letter-spacing="0" word-spacing="0"><path fill="#fff" d="M21.743 25.3q-4.8.4-9.08.4-4.24 0-6.08-1.84-1.84-1.84-1.84-5.76V6.5h7.2v11.6q0 .92.52 1.48.56.52 1.48.52 3.28 0 7.8-.4V6.5h7.2v28h-7.2v-9.2zM40.946 34.5h-7.2v-28h21.8v5.6h-14.6v22.4zM78.755 6.1q1 0 3.6.4v5.4h-1.6q-.6 0-1.08.4-.48.36-.72.8l-3.8 7.2 7.8 14.2h-7.6l-6.2-11.4h-3.6v11.4h-7.2v-28h7.2v11h3.6l4-7.6q.88-1.68 2.16-2.72 1.32-1.08 3.44-1.08zM115.418 14.1q0-2.4-2.4-2.4h-6.8q-2.4 0-2.4 2.4v12.8q0 2.4 2.4 2.4h6.8q2.4 0 2.4-2.4V14.1zm7.2 12.8q0 4.2-1.92 6.12-1.88 1.88-6.08 1.88h-10q-4.2 0-6.12-1.88-1.88-1.92-1.88-6.12V14.1q0-4.2 1.88-6.08 1.92-1.92 6.12-1.92h10q4.2 0 6.08 1.92 1.92 1.88 1.92 6.08v12.8zM145.036 34.1q-7.48.8-13.2.8-2.72 0-4.36-1.64-1.64-1.64-1.64-4.36v-9.2q0-3 1.68-4.68 1.72-1.72 4.72-1.72h12.8v5.4h-10.6q-1.6 0-1.6 1.6v7.8q0 .6.4 1t1 .4q3.6 0 10.8-.6v5.2zM150.668 34.9q-1.72 0-4-.4v-5.2h1.6q1.52 0 1.6-1.6l.8-14.4h19.2v21.2h-7V18.7h-5.6l-.6 10.2q-.16 2.72-1.8 4.36-1.64 1.64-4.2 1.64zM195.493 28.5q0 3-1.72 4.72-1.68 1.68-4.68 1.68h-9.2q-3 0-4.72-1.68-1.68-1.72-1.68-4.72v-9.2q0-3 1.68-4.68 1.72-1.72 4.72-1.72h9.2q3 0 4.68 1.72 1.72 1.68 1.72 4.68v9.2zm-7-8.6q0-1.6-1.6-1.6h-4.8q-1.6 0-1.6 1.6v8q0 1.6 1.6 1.6h4.8q1.6 0 1.6-1.6v-8z" style="-inkscape-font-specification:'Russo One'"/></g></svg>
